<?xml version="1.0" standalone="no"?>
<!DOCTYPE svg PUBLIC "-//W3C//DTD SVG 20010904//EN"
 "http://www.w3.org/TR/2001/REC-SVG-20010904/DTD/svg10.dtd">
<svg version="1.0" xmlns="http://www.w3.org/2000/svg"
 width="50.000000pt" height="50.000000pt" viewBox="0 0 50.000000 50.000000"
 preserveAspectRatio="xMidYMid meet">

<g transform="translate(0.000000,50.000000) scale(0.100000,-0.100000)"
fill="#000000" stroke="none">
<path d="M193 465 c5 -32 3 -37 -21 -46 -85 -32 -136 -110 -136 -204 1 -68 17
-105 66 -152 87 -84 209 -84 296 0 49 47 65 84 66 152 0 92 -47 166 -127 200
-33 14 -35 17 -30 50 l6 35 -47 0 c-58 0 -61 -18 -3 -23 40 -3 40 -4 -10 -5
-43 -2 -51 1 -47 13 4 8 1 15 -6 15 -9 0 -11 -11 -7 -35z m87 -23 c0 -5 -13
-9 -30 -9 -16 0 -30 4 -30 9 0 4 14 8 30 8 17 0 30 -4 30 -8z m-37 -64 c4 -10
7 -10 14 -1 13 19 53 5 45 -15 -5 -15 -4 -15 11 -3 14 11 20 11 32 1 9 -7 13
-20 10 -28 -3 -9 0 -12 9 -9 18 7 40 -18 31 -33 -4 -6 1 -18 11 -25 16 -12 17
-17 6 -34 -8 -14 -9 -21 -1 -21 6 0 9 -10 7 -22 -2 -13 -9 -22 -17 -20 -9 2
-11 -3 -7 -13 8 -23 -11 -56 -29 -49 -11 4 -13 2 -9 -9 3 -10 -2 -20 -15 -27
-14 -7 -21 -7 -21 0 0 5 -4 10 -10 10 -5 0 -10 -7 -10 -15 0 -18 -36 -20 -44
-2 -5 9 -7 9 -12 0 -8 -18 -44 -16 -44 2 0 8 -4 15 -10 15 -5 0 -10 -5 -10
-10 0 -6 -8 -5 -20 2 -11 7 -18 19 -15 27 3 8 0 11 -9 8 -20 -8 -39 18 -31 43
4 14 2 20 -6 18 -18 -4 -24 33 -7 43 11 8 11 10 -1 18 -18 11 -7 41 15 41 13
0 14 3 4 15 -15 19 4 47 26 38 9 -3 12 0 9 9 -3 8 1 21 10 28 12 10 18 10 32
-1 15 -12 16 -12 10 3 -5 15 2 21 35 27 3 0 9 -5 11 -11z"/>
<path d="M301 276 c-12 -13 -36 -26 -52 -30 -25 -5 -30 -10 -27 -28 4 -31 51
-33 56 -3 2 11 18 35 35 53 17 17 26 32 21 32 -6 0 -21 -11 -33 -24z m-36 -55
c7 -12 -12 -24 -25 -16 -11 7 -4 25 10 25 5 0 11 -4 15 -9z"/>
<path d="M228 143 c12 -2 32 -2 45 0 12 2 2 4 -23 4 -25 0 -35 -2 -22 -4z"/>
</g>
</svg>
